<?xml version="1.0" encoding="UTF-8"?>
<svg width="1024" height="1024" viewBox="0 0 1024 1024" xmlns="http://www.w3.org/2000/svg">
  <!-- Background gradient -->
  <defs>
    <linearGradient id="backgroundGradient" x1="0%" y1="0%" x2="100%" y2="100%">
      <stop offset="0%" style="stop-color:#059669;stop-opacity:1" />
      <stop offset="100%" style="stop-color:#047857;stop-opacity:1" />
    </linearGradient>
    <filter id="shadow">
      <feDropShadow dx="0" dy="8" stdDeviation="16" flood-opacity="0.15"/>
    </filter>
  </defs>
  
  <!-- Background -->
  <rect width="1024" height="1024" fill="url(#backgroundGradient)" rx="224" ry="224"/>
  
  <!-- Tax document -->
  <g filter="url(#shadow)">
    <!-- Main document -->
    <rect x="212" y="212" width="420" height="600" rx="20" ry="20" fill="white"/>
    
    <!-- Document lines representing form fields -->
    <g stroke="#E5E7EB" stroke-width="16" stroke-linecap="round">
      <line x1="272" y1="320" x2="572" y2="320"/>
      <line x1="272" y1="400" x2="572" y2="400"/>
      <line x1="272" y1="480" x2="572" y2="480"/>
      <line x1="272" y1="560" x2="572" y2="560"/>
      <line x1="272" y1="640" x2="470" y2="640"/>
    </g>
    
    <!-- Highlight some lines with green to show financial data -->
    <g stroke="#10B981" stroke-width="16" stroke-linecap="round">
      <line x1="420" y1="320" x2="572" y2="320"/>
      <line x1="380" y1="400" x2="572" y2="400"/>
      <line x1="440" y1="480" x2="572" y2="480"/>
    </g>
  </g>
  
  <!-- Dollar sign circle overlay -->
  <g filter="url(#shadow)">
    <circle cx="512" cy="600" r="180" fill="#10B981"/>
    <circle cx="512" cy="600" r="150" fill="white"/>
    
    <!-- Dollar sign -->
    <path d="M 512 480 L 512 720" stroke="#10B981" stroke-width="24" stroke-linecap="round"/>
    <path d="M 460 530 Q 460 500, 512 500 Q 564 500, 564 530 Q 564 560, 512 580 Q 460 600, 460 630 Q 460 670, 512 670 Q 564 670, 564 640" 
          stroke="#10B981" stroke-width="40" stroke-linecap="round" fill="none"/>
  </g>
  
  <!-- Checkmark in corner -->
  <g filter="url(#shadow)">
    <circle cx="712" cy="312" r="100" fill="#FCD34D"/>
    <path d="M 662 312 L 692 342 L 762 272" stroke="white" stroke-width="20" stroke-linecap="round" stroke-linejoin="round" fill="none"/>
  </g>
</svg>