<svg width="1024" height="1024" viewBox="0 0 1024 1024" xmlns="http://www.w3.org/2000/svg">
  <defs>
    <!-- Subtle linear gradient for depth -->
    <linearGradient id="backgroundGradient" x1="0%" y1="0%" x2="100%" y2="100%">
      <stop offset="0%" style="stop-color:#10b981;stop-opacity:1" />
      <stop offset="100%" style="stop-color:#047857;stop-opacity:1" />
    </linearGradient>
    
    <!-- Shadow for document -->
    <filter id="documentShadow">
      <feDropShadow dx="0" dy="8" stdDeviation="16" flood-opacity="0.1"/>
    </filter>
    
    <!-- Shadow for badge -->
    <filter id="badgeShadow">
      <feDropShadow dx="4" dy="4" stdDeviation="8" flood-opacity="0.2"/>
    </filter>
  </defs>
  
  <!-- Background -->
  <rect width="1024" height="1024" fill="url(#backgroundGradient)"/>
  
  <!-- Tax Document -->
  <g transform="translate(512, 512)">
    <!-- Document background with rounded corners -->
    <rect x="-280" y="-360" width="560" height="720" rx="32" ry="32" 
          fill="white" filter="url(#documentShadow)"/>
    
    <!-- Document header lines -->
    <rect x="-200" y="-280" width="280" height="20" rx="10" fill="#e2e8f0"/>
    <rect x="-200" y="-220" width="400" height="20" rx="10" fill="#e2e8f0"/>
    
    <!-- Green highlighted lines for calculations -->
    <rect x="120" y="-280" width="80" height="20" rx="10" fill="#10b981"/>
    <rect x="-200" y="-100" width="180" height="20" rx="10" fill="#e2e8f0"/>
    <rect x="20" y="-100" width="180" height="20" rx="10" fill="#10b981"/>
    
    <!-- More document lines -->
    <rect x="-200" y="-40" width="300" height="20" rx="10" fill="#e2e8f0"/>
    <rect x="-200" y="20" width="340" height="20" rx="10" fill="#e2e8f0"/>
    <rect x="-200" y="140" width="240" height="20" rx="10" fill="#e2e8f0"/>
    <rect x="-200" y="200" width="320" height="20" rx="10" fill="#e2e8f0"/>
    
    <!-- Dollar sign circle -->
    <g transform="translate(0, 100)">
      <!-- Circle background -->
      <circle cx="0" cy="0" r="140" fill="white" stroke="#10b981" stroke-width="28"/>
      
      <!-- Clean dollar sign - adjusted vertical position -->
      <text x="0" y="55" font-family="Arial, sans-serif" font-size="180" font-weight="bold" 
            text-anchor="middle" fill="#10b981">$</text>
    </g>
    
    <!-- Success badge -->
    <g transform="translate(200, -180)" filter="url(#badgeShadow)">
      <!-- Badge circle -->
      <circle cx="0" cy="0" r="100" fill="#fbbf24"/>
      
      <!-- Checkmark -->
      <path d="M -40,10 L -10,40 L 50,-30" 
            stroke="white" stroke-width="28" stroke-linecap="round" 
            stroke-linejoin="round" fill="none"/>
    </g>
  </g>
</svg>